<svg width="9" height="10" viewBox="0 0 9 10" fill="none" xmlns="http://www.w3.org/2000/svg">
<path d="M2.5 0H1.5C1.23478 0 0.98043 0.105357 0.792893 0.292893C0.605357 0.48043 0.5 0.734784 0.5 1V9C0.5 9.26522 0.605357 9.51957 0.792893 9.70711C0.98043 9.89464 1.23478 10 1.5 10H2.5C2.76522 10 3.01957 9.89464 3.20711 9.70711C3.39464 9.51957 3.5 9.26522 3.5 9V1C3.5 0.734784 3.39464 0.48043 3.20711 0.292893C3.01957 0.105357 2.76522 0 2.5 0ZM7.5 0H6.5C6.23478 0 5.98043 0.105357 5.79289 0.292893C5.60536 0.48043 5.5 0.734784 5.5 1V9C5.5 9.26522 5.60536 9.51957 5.79289 9.70711C5.98043 9.89464 6.23478 10 6.5 10H7.5C7.76522 10 8.01957 9.89464 8.20711 9.70711C8.39464 9.51957 8.5 9.26522 8.5 9V1C8.5 0.734784 8.39464 0.48043 8.20711 0.292893C8.01957 0.105357 7.76522 0 7.5 0Z" fill="white"/>
</svg>
