<svg width="11" height="12" viewBox="0 0 11 12" fill="none" xmlns="http://www.w3.org/2000/svg">
<path d="M1.604 1.02467C1.54327 0.988658 1.47409 0.969367 1.40349 0.96875C1.33289 0.968133 1.26339 0.986214 1.20204 1.02115C1.14069 1.0561 1.08968 1.10665 1.0542 1.16769C1.01871 1.22872 1.00001 1.29806 1 1.36867V10.6313C1.00001 10.7019 1.01871 10.7713 1.0542 10.8323C1.08968 10.8933 1.14069 10.9439 1.20204 10.9788C1.26339 11.0138 1.33289 11.0319 1.40349 11.0312C1.47409 11.0306 1.54327 11.0113 1.604 10.9753L9.41933 6.344C9.47902 6.30858 9.52847 6.25824 9.56281 6.19793C9.59716 6.13762 9.61522 6.0694 9.61522 6C9.61522 5.93059 9.59716 5.86238 9.56281 5.80207C9.52847 5.74176 9.47902 5.69142 9.41933 5.656L1.604 1.02467Z" fill="white" stroke="white" stroke-width="1.5" stroke-linecap="round" stroke-linejoin="round"/>
</svg>
